<?xml version="1.0" standalone="no"?><!DOCTYPE svg PUBLIC "-//W3C//DTD SVG 1.1//EN" "http://www.w3.org/Graphics/SVG/1.1/DTD/svg11.dtd"><svg t="1594209768944" class="icon" viewBox="0 0 1024 1024" version="1.1" xmlns="http://www.w3.org/2000/svg" p-id="15539" width="64" height="64" xmlns:xlink="http://www.w3.org/1999/xlink"><defs><style type="text/css"></style></defs><path d="M912.1792 980.1728H111.7184c-37.5808 0-68.1984-30.4128-68.1984-68.1984V111.5136c0-37.5808 30.4128-68.1984 68.1984-68.1984h800.4608c37.5808 0 68.1984 30.4128 68.1984 68.1984v800.4608c-0.1024 37.6832-30.5152 68.1984-68.1984 68.1984z m0 0" fill="#F5B319" p-id="15540"></path><path d="M86.1184 0.8192H35.0208C16.384 0.8192 1.024 16.1792 1.024 34.9184V86.016h85.0944V0.8192zM1.024 171.1104h85.0944v85.0944H1.024zM682.1888 0.8192h85.0944v85.0944h-85.0944zM171.3152 0.8192h85.0944v85.0944h-85.0944zM341.6064 0.8192h85.0944v85.0944h-85.0944zM920.7808 86.016h16.9984V0.8192h-85.0944V86.016zM512 0.8192h85.0944v85.0944H512zM86.1184 920.576v-68.1984H1.024v85.1968h85.0944zM1.024 682.0864h85.0944v85.0944H1.024zM1.024 511.7952h85.0944v85.0944H1.024zM1.024 341.4016h85.0944v85.0944H1.024z" fill="#FFFFFF" p-id="15541"></path><path d="M86.1184 103.0144V86.016H1.024v85.0944h85.0944v-68.096zM1.024 256.3072h85.0944v85.0944H1.024v-85.0944z m0 170.2912h85.0944v85.0944H1.024v-85.0944z m0 170.2912h85.0944V681.984H1.024v-85.0944z m0 170.3936h85.0944v85.0944H1.024v-85.0944z m0 170.2912v51.0976c0 18.7392 15.36 33.9968 33.9968 33.9968h51.0976v-85.0944H1.024z m170.2912 0h85.0944v85.0944h-85.0944v-85.0944z m510.8736 0h85.0944v85.0944h-85.0944v-85.0944z m-170.1888 0h85.0944v85.0944H512v-85.0944z m408.7808 0h-68.1984v85.0944h85.0944v-85.0944h-16.896z m-579.1744 0h85.0944v85.0944h-85.0944v-85.0944zM103.2192 86.016h68.1984V0.8192H86.1184V86.016h17.1008z m0 0" fill="#474747" p-id="15542"></path><path d="M103.2192 937.5744H86.1184v85.0944h85.0944v-85.0944h-67.9936z m0 0" fill="#FFFFFF" p-id="15543"></path><path d="M256.512 0.8192h85.0944v85.0944h-85.0944z" fill="#474747" p-id="15544"></path><path d="M256.512 937.5744h85.0944v85.0944h-85.0944z" fill="#FFFFFF" p-id="15545"></path><path d="M426.7008 0.8192h85.0944v85.0944h-85.0944z" fill="#474747" p-id="15546"></path><path d="M426.7008 937.5744h85.0944v85.0944h-85.0944z" fill="#FFFFFF" p-id="15547"></path><path d="M597.0944 0.8192h85.0944v85.0944h-85.0944z" fill="#474747" p-id="15548"></path><path d="M597.0944 937.5744h85.0944v85.0944h-85.0944z" fill="#FFFFFF" p-id="15549"></path><path d="M767.488 0.8192h85.0944v85.0944h-85.0944z" fill="#474747" p-id="15550"></path><path d="M767.488 937.5744h85.0944v85.0944h-85.0944z" fill="#FFFFFF" p-id="15551"></path><path d="M937.6768 341.4016h85.0944v85.0944h-85.0944v-85.0944z m0 579.1744v17.1008h85.0944v-85.0944h-85.0944V920.576z m0-238.4896h85.0944v85.0944h-85.0944v-85.0944zM988.7744 0.8192h-51.0976V86.016h85.0944V34.9184C1022.8736 16.1792 1007.616 0.8192 988.7744 0.8192z m-51.0976 170.2912h85.0944v85.0944h-85.0944v-85.0944z m0 340.6848h85.0944v85.0944h-85.0944v-85.0944z m0 0" fill="#474747" p-id="15552"></path><path d="M937.6768 103.0144v68.1984h85.0944V86.016h-85.0944v16.9984z m0 153.2928h85.0944v85.0944h-85.0944v-85.0944z m0 170.2912h85.0944v85.0944h-85.0944v-85.0944z m0 170.2912h85.0944V681.984h-85.0944v-85.0944z m0 170.3936h85.0944v85.0944h-85.0944v-85.0944z m0 255.488h51.0976c18.7392 0 33.9968-15.36 33.9968-33.9968v-51.0976h-85.0944v85.0944z m0 0" fill="#FFFFFF" p-id="15553"></path><path d="M548.6592 409.8048h132.5056c4.1984 0 6.5536 4.9152 3.7888 8.192L346.112 825.0368c-3.584 4.4032-10.5472 0.2048-8.4992-5.0176L445.44 546.5088c1.3312-3.2768-1.1264-6.8608-4.608-6.8608H319.3856c-3.4816 0-5.9392-3.4816-4.7104-6.7584l132.3008-355.0208c0.7168-1.9456 2.56-3.2768 4.7104-3.2768h250.0608c4.096 0 6.4512 4.608 3.9936 7.9872L544.6656 401.92c-2.4576 3.2768-0.1024 7.8848 3.9936 7.8848z m-9.8304 0" fill="#FFFFFF" p-id="15554"></path></svg>